<?xml version="1.0" standalone="no"?>
<!DOCTYPE svg PUBLIC "-//W3C//DTD SVG 20010904//EN"
 "http://www.w3.org/TR/2001/REC-SVG-20010904/DTD/svg10.dtd">
<svg version="1.0" xmlns="http://www.w3.org/2000/svg"
 width="1872.000000pt" height="1872.000000pt" viewBox="0 0 1872.000000 1872.000000"
 preserveAspectRatio="xMidYMid meet">
<metadata>
Created by potrace 1.11, written by Peter Selinger 2001-2013
</metadata>
<g transform="translate(0.000000,1872.000000) scale(0.100000,-0.100000)"
fill="#000000" stroke="none">
<path d="M3480 11000 l0 -7001 2283 4 c1255 2 2309 7 2342 10 33 3 123 8 200
12 77 4 160 8 185 10 25 2 81 6 125 9 192 15 361 30 460 41 28 3 66 8 85 10
83 9 147 17 170 20 14 2 50 6 80 10 69 8 108 14 140 20 14 3 44 7 68 10 23 2
68 9 100 14 31 6 71 13 87 16 17 2 50 8 75 11 25 3 47 8 50 9 3 2 46 11 95 19
110 19 132 24 153 30 9 3 33 8 52 11 55 9 284 61 395 90 55 14 109 28 121 30
151 33 738 226 871 286 24 10 45 19 47 19 7 0 210 87 301 128 228 105 540 274
721 391 43 28 86 55 94 61 31 19 206 144 231 164 15 12 39 30 55 41 42 30 271
221 333 279 609 568 1039 1228 1357 2083 35 95 64 177 64 183 0 6 4 18 9 28 8
13 36 101 57 177 2 6 15 51 29 100 39 137 102 393 130 529 33 166 34 167 55
291 10 61 21 124 24 140 3 17 8 50 11 75 3 25 8 52 10 60 2 8 7 42 10 75 10
89 14 126 20 165 6 39 10 77 20 200 4 47 8 92 10 100 3 16 15 178 20 265 16
278 19 401 19 800 0 408 -6 641 -19 785 -2 25 -7 88 -10 140 -7 97 -10 132
-20 230 -3 30 -8 71 -10 90 -10 102 -47 379 -70 530 -13 77 -66 359 -80 415
-8 33 -16 71 -19 85 -5 29 -57 238 -80 320 -8 30 -22 82 -31 115 -52 193 -202
602 -310 845 -72 162 -229 464 -285 550 -5 8 -18 31 -29 50 -11 19 -61 98
-113 175 -358 535 -778 964 -1291 1318 -632 437 -1357 751 -2257 977 -152 38
-281 67 -420 95 -41 8 -84 16 -95 19 -48 10 -244 45 -280 51 -154 23 -168 25
-185 30 -8 2 -42 7 -75 10 -32 4 -62 8 -65 10 -3 1 -36 6 -73 10 -37 3 -76 8
-85 10 -9 1 -46 6 -82 9 -36 4 -76 9 -90 11 -14 2 -56 7 -93 10 -37 4 -76 8
-85 10 -9 1 -60 6 -112 10 -52 4 -108 8 -123 10 -27 3 -168 14 -272 20 -27 2
-111 6 -185 10 -74 4 -160 9 -190 12 -30 3 -1084 8 -2342 10 l-2288 4 0 -7001z
m4792 5427 c57 -5 183 -14 293 -22 33 -2 80 -7 105 -9 25 -3 72 -8 105 -11 33
-3 76 -7 95 -10 19 -2 58 -7 85 -10 28 -3 61 -8 75 -10 46 -7 183 -27 209 -30
35 -5 85 -13 146 -25 28 -5 64 -12 80 -15 33 -5 67 -12 105 -20 14 -3 34 -7
45 -9 11 -2 52 -12 90 -21 39 -9 77 -18 85 -20 94 -22 162 -40 250 -65 58 -17
112 -32 121 -34 10 -3 79 -26 155 -51 423 -144 777 -317 1109 -543 99 -68 182
-128 195 -142 3 -3 41 -35 85 -70 110 -88 364 -343 467 -470 295 -363 540
-809 703 -1279 34 -98 103 -317 110 -349 2 -9 16 -62 30 -117 15 -55 29 -111
32 -125 5 -27 7 -32 16 -70 4 -14 9 -36 11 -50 3 -14 7 -36 10 -50 4 -14 13
-61 21 -105 8 -44 16 -89 19 -100 2 -11 9 -56 16 -100 6 -44 13 -91 16 -105 7
-40 34 -249 40 -315 2 -33 7 -73 9 -90 2 -16 6 -64 10 -105 3 -41 8 -97 10
-125 27 -324 27 -1192 1 -1475 -2 -19 -7 -78 -10 -130 -6 -84 -46 -431 -61
-536 -27 -180 -83 -460 -139 -699 -3 -11 -25 -90 -50 -175 -25 -85 -48 -162
-50 -170 -25 -83 -132 -366 -178 -470 -38 -85 -168 -345 -192 -385 -14 -22
-34 -58 -46 -80 -56 -104 -240 -364 -356 -504 -117 -141 -341 -361 -481 -473
-23 -18 -54 -43 -70 -56 -72 -57 -260 -184 -378 -255 -121 -73 -388 -212 -480
-249 -22 -9 -85 -35 -139 -58 -150 -62 -515 -185 -606 -205 -8 -2 -51 -13 -95
-24 -73 -20 -212 -52 -275 -65 -14 -2 -50 -10 -80 -16 -30 -6 -66 -13 -80 -16
-14 -3 -50 -9 -80 -15 -60 -11 -93 -17 -142 -24 -31 -4 -92 -14 -128 -20 -8
-1 -44 -6 -80 -10 -36 -4 -72 -9 -80 -10 -13 -3 -103 -13 -170 -20 -14 -2 -61
-6 -105 -10 -44 -4 -96 -8 -115 -10 -19 -2 -82 -7 -140 -10 -58 -4 -127 -9
-155 -12 -27 -2 -690 -7 -1472 -10 l-1423 -5 0 5442 0 5442 1423 -5 c782 -3
1448 -8 1479 -10z"/>
</g>
</svg>
